<?xml version="1.0" standalone="no"?>
<!DOCTYPE svg PUBLIC "-//W3C//DTD SVG 20010904//EN"
 "http://www.w3.org/TR/2001/REC-SVG-20010904/DTD/svg10.dtd">
<svg version="1.0" xmlns="http://www.w3.org/2000/svg"
 width="400.000000pt" height="400.000000pt" viewBox="0 0 400.000000 400.000000"
 preserveAspectRatio="xMidYMid meet">

<g transform="translate(0.000000,400.000000) scale(0.100000,-0.100000)"
fill="#000000" stroke="none">
<path d="M1777 3545 c-420 -58 -817 -296 -1060 -638 -514 -720 -335 -1706 398
-2198 532 -358 1238 -358 1770 0 717 481 907 1444 426 2156 -337 501 -928 762
-1534 680z m541 -54 c315 -69 549 -196 773 -420 210 -211 329 -422 404 -717
24 -97 17 -88 -30 39 -92 248 -187 400 -367 591 -200 213 -424 350 -703 431
-270 78 -584 71 -861 -21 -446 -148 -808 -514 -952 -964 -88 -275 -94 -597
-17 -892 25 -97 71 -210 144 -357 23 -44 39 -81 37 -81 -9 0 -121 207 -158
292 -149 344 -167 711 -53 1064 38 115 124 290 197 396 81 120 275 314 393
394 200 136 412 221 650 260 119 20 422 11 543 -15z m-309 -843 c0 -340 4
-618 9 -618 22 2 217 129 215 141 -4 32 -203 1195 -208 1213 -4 18 1 19 83 13
326 -21 653 -174 902 -420 268 -265 410 -602 411 -972 1 -137 -10 -221 -42
-347 -42 -165 -129 -366 -152 -351 -7 4 -227 187 -491 406 l-478 399 -39 -18
c-22 -9 -43 -22 -48 -28 -6 -7 167 -138 516 -391 478 -346 611 -447 513 -388
-109 65 -1155 665 -1166 670 -12 4 -14 -16 -12 -122 l3 -128 540 -206 c297
-114 561 -215 588 -225 26 -10 47 -23 47 -29 0 -23 -129 -184 -212 -263 -195
-187 -429 -308 -718 -370 -132 -29 -429 -27 -569 4 -296 66 -520 191 -724 402
-99 102 -197 231 -180 238 4 1 271 103 593 226 l585 224 3 131 3 132 -23 -15
c-13 -8 -293 -170 -622 -360 -392 -226 -606 -344 -617 -341 -20 7 -62 103
-108 248 -42 131 -39 156 4 37 19 -52 53 -133 75 -178 22 -46 37 -89 34 -94
-4 -6 -2 -9 3 -7 25 10 1103 792 1103 800 0 5 -20 19 -44 31 l-44 21 -474
-393 c-260 -216 -481 -400 -490 -408 -15 -13 -20 -7 -53 58 -133 264 -181 605
-126 888 114 586 572 1033 1156 1127 49 8 118 15 153 15 l63 0 -6 -32 c-3 -18
-46 -285 -95 -593 -49 -308 -92 -574 -95 -592 -5 -29 -2 -34 40 -59 25 -14 47
-25 49 -23 1 2 29 276 60 609 32 333 61 628 64 655 l7 50 6 -75 c4 -41 7 -353
8 -692z m1361 -120 c63 -134 115 -284 130 -381 19 -114 7 -335 -24 -467 -68
-293 -195 -520 -411 -735 -223 -223 -476 -358 -790 -422 -136 -27 -444 -25
-581 5 -201 43 -389 121 -540 223 -144 97 -316 279 -403 427 -27 46 -29 53
-14 59 11 4 22 -1 32 -17 96 -146 266 -322 390 -405 600 -399 1376 -331 1872
164 58 58 133 145 167 193 107 152 192 354 238 568 26 119 26 410 1 530 -21
100 -69 245 -103 313 -14 26 -22 47 -19 47 4 0 28 -46 55 -102z"/>
<path d="M1957 2585 c-16 -236 -31 -451 -34 -477 -5 -44 -4 -47 27 -63 17 -9
34 -15 36 -12 2 2 3 224 2 493 l-3 489 -28 -430z"/>
<path d="M1815 1953 c-130 -107 -138 -114 -134 -118 2 -2 66 31 142 73 136 76
137 77 116 95 -12 9 -26 17 -33 17 -6 0 -47 -30 -91 -67z"/>
<path d="M2060 2002 c-22 -17 -18 -20 387 -257 224 -131 423 -247 441 -258 17
-10 32 -16 32 -13 0 10 -809 546 -824 546 -7 0 -24 -8 -36 -18z"/>
</g>
</svg>
